<?xml version="1.0" encoding="UTF-8"?>
<svg id="Layer_4" data-name="Layer 4" xmlns="http://www.w3.org/2000/svg" viewBox="0 0 725.49 156.14">
  <defs>
    <style>
      .cls-1 {
        fill: #fff;
      }

      .cls-2 {
        fill: none;
        stroke: #fff;
        stroke-miterlimit: 10;
        stroke-width: 22px;
      }
    </style>
  </defs>
  <g>
    <path class="cls-1" d="M131.15,79.56c0-10.94,3.91-20.23,11.64-27.81s17.19-11.33,28.36-11.33c7.27,0,14.06,1.88,20.39,5.55,6.33,3.75,11.09,9.06,14.45,15.86l-15.23,9.69c-4.14-8.36-11.56-12.66-19.3-12.66-5.94,0-10.78,2.03-14.61,6.02-3.83,4.06-5.78,9.06-5.78,15.08s1.95,10.7,5.78,14.69,8.59,6.02,14.3,6.02c8.52,0,15.23-4.3,20-12.97l14.45,10.16c-3.36,6.64-8.2,11.8-14.53,15.47s-13.12,5.47-20.39,5.47c-21.95.47-40-17.73-39.53-39.22Z"/>
    <path class="cls-1" d="M233.78,117.22h-20.08V42.22h19.06l.39,8.67c4.14-5.7,12.66-10.23,22.97-10.23,11.48,0,20.78,4.84,25.16,13.28,5.39-8.12,15.08-13.28,26.02-13.28,8.75,0,15.86,2.66,21.33,7.97,5.39,5.31,8.12,12.5,8.12,21.48v47.11h-20.08v-41.95c0-10.08-6.17-16.02-15-16.02-4.61,0-8.44,1.41-11.64,4.14s-4.84,6.56-4.84,11.41v42.42h-20.08v-41.95c0-10.08-6.17-16.02-14.92-16.02-4.61,0-8.44,1.41-11.64,4.22-3.2,2.89-4.77,6.8-4.77,11.8v41.95Z"/>
    <path class="cls-1" d="M365.47,148.47h-20V42.22h19.3l.39,9.06c5.55-7.11,13.83-10.62,24.69-10.62s19.38,3.67,26.17,11.09,10.16,16.88,10.16,28.28-3.36,20.62-10.16,27.89-15.55,10.86-26.17,10.86-18.83-3.12-24.38-9.45v39.14ZM371.17,94.79c3.83,3.98,8.75,6.02,14.61,6.02s10.78-1.95,14.61-5.94,5.7-8.91,5.7-14.92-1.88-11.17-5.7-15.23-8.67-6.09-14.61-6.09-10.78,2.03-14.61,6.09c-3.83,4.14-5.78,9.22-5.78,15.23s1.95,10.86,5.78,14.84Z"/>
    <path class="cls-1" d="M433.51,117.22V42.22h19.38l.39,10.23c3.75-7.73,10.86-11.8,19.53-11.8,3.2,0,6.48.55,9.77,1.72l-1.56,17.89c-3.36-1.17-6.41-1.72-9.3-1.72-8.83,0-18.12,4.77-18.12,20.23v38.44h-20.08Z"/>
    <path class="cls-1" d="M481.81,79.64c.08-11.41,3.75-20.78,11.02-28.05s16.41-10.94,27.58-10.94c10.55,0,19.3,3.28,26.09,9.92s10.23,15.47,10.23,26.64c0,2.73-.23,5.55-.7,8.52h-54.22c.7,4.3,3.05,7.89,6.95,10.7,3.83,2.89,8.2,4.3,13.05,4.3,7.66,0,13.91-3.52,18.67-10.55l14.22,10.62c-3.44,5.7-8.12,10.16-14.14,13.28-6.02,3.2-12.42,4.77-19.22,4.77-23.52.31-40-17.58-39.53-39.22ZM538.06,72.29c-.55-4.3-2.34-7.81-5.55-10.62-3.2-2.73-7.19-4.14-11.88-4.14-4.92,0-9.06,1.41-12.5,4.14-3.44,2.81-5.47,6.33-6.02,10.62h35.94Z"/>
    <path class="cls-1" d="M582.08,148.47h-20V42.22h19.3l.39,9.06c5.55-7.11,13.83-10.62,24.69-10.62s19.38,3.67,26.17,11.09,10.16,16.88,10.16,28.28-3.36,20.62-10.16,27.89-15.55,10.86-26.17,10.86-18.83-3.12-24.38-9.45v39.14ZM587.78,94.79c3.83,3.98,8.75,6.02,14.61,6.02s10.78-1.95,14.61-5.94,5.7-8.91,5.7-14.92-1.88-11.17-5.7-15.23-8.67-6.09-14.61-6.09-10.78,2.03-14.61,6.09c-3.83,4.14-5.78,9.22-5.78,15.23s1.95,10.86,5.78,14.84Z"/>
    <path class="cls-1" d="M653.93,112.45c-5.23-4.22-7.81-9.77-7.81-16.72s3.05-12.89,9.06-17.34,13.91-6.64,23.83-6.64c5.7,0,10.94.86,15.78,2.58v-1.72c0-4.14-1.48-7.58-4.53-10.31-3.05-2.66-6.95-3.98-11.72-3.98-7.27,0-13.91,3.12-19.84,9.45l-11.48-11.48c3.2-4.14,7.5-7.73,13.05-10.94,5.55-3.12,11.8-4.69,18.91-4.69,11.02,0,19.69,2.73,26.09,8.12,6.33,5.47,9.53,12.89,9.53,22.27v46.17h-19.06v-8.36c-4.06,6.17-11.88,9.92-21.25,9.92-8.52,0-15.39-2.11-20.55-6.33ZM665.11,94.64c0,5.62,4.92,9.22,12.5,9.22,4.92,0,8.98-1.48,12.27-4.45s4.92-6.8,4.92-11.41c-4.3-1.95-9.14-2.89-14.38-2.89-9.14,0-15.31,3.83-15.31,9.53Z"/>
  </g>
  <path class="cls-2" d="M122.49,117.77c-.92-4.6-8.77-25.8-30.2-15.3-8.54,4.18-16.88,9.44-27.14,9.44-24.14,0-43.7-19.57-43.7-43.7s19.57-43.7,43.7-43.7,43.7,19.57,43.7,43.7c0,2.92-.29,5.77-.83,8.53"/>
</svg>